<svg width="204" height="66" viewBox="0 0 204 66" fill="none" xmlns="http://www.w3.org/2000/svg">
<path fill-rule="evenodd" clip-rule="evenodd" d="M48.0327 33.7545L48.0033 24.8794C48.0033 23.9795 47.2693 23.2551 46.3665 23.2551C46.0289 23.2551 45.7132 23.3576 45.4563 23.5332L37.8595 27.9451C37.0815 28.3987 36.8246 29.3938 37.2723 30.162C37.4265 30.4254 37.6393 30.6229 37.8889 30.762L45.5958 35.1592C46.3738 35.6056 47.3721 35.3348 47.8198 34.5593C47.9593 34.3105 48.0253 34.0252 48.0327 33.7545Z" fill="white"/>
<path fill-rule="evenodd" clip-rule="evenodd" d="M15.4957 44.1512L25.7129 49.9825C26.7478 50.5752 28.0616 50.2167 28.6562 49.185C28.8764 48.7972 28.9645 48.3729 28.9351 47.9558L28.8911 36.3736C28.8837 35.1883 27.9148 34.2298 26.7258 34.2371C26.3221 34.2371 25.9477 34.3469 25.6321 34.5444L15.4883 40.4343C14.4607 41.027 14.1084 42.3439 14.7103 43.3683C14.9085 43.7048 15.18 43.9682 15.4957 44.1512Z" fill="white"/>
<path fill-rule="evenodd" clip-rule="evenodd" d="M25.961 8.48283L15.2521 14.6946C14.1657 15.3239 13.7987 16.7067 14.43 17.7895C14.6649 18.192 15.0098 18.4993 15.4062 18.6895L26.0198 24.7476C27.1061 25.3622 28.4933 24.9891 29.1099 23.9062C29.3154 23.5404 29.4108 23.1453 29.4108 22.7502L29.3668 10.429C29.3668 9.18523 28.3465 8.17554 27.0987 8.17554C26.6803 8.18285 26.2913 8.2926 25.961 8.48283Z" fill="white"/>
<path fill-rule="evenodd" clip-rule="evenodd" d="M52.1866 9.98984L36.9563 1.29766C35.4149 0.419659 33.4478 0.953774 32.567 2.49027C32.2367 3.06829 32.1046 3.70484 32.1486 4.31943L32.2147 21.594C32.222 23.3574 33.668 24.7841 35.4369 24.7768C36.0314 24.7768 36.5893 24.6085 37.0664 24.3232L52.194 15.5432C53.728 14.6579 54.2492 12.697 53.361 11.1678C53.0674 10.663 52.6564 10.2679 52.1866 9.98984Z" fill="white"/>
<path fill-rule="evenodd" clip-rule="evenodd" d="M0 19.0847L0.0733993 39.5713C0.0807393 41.6419 1.77626 43.3174 3.85346 43.31C4.6315 43.31 5.35815 43.0686 5.96002 42.6589L23.4951 32.4814C25.2861 31.4352 25.8879 29.1451 24.8457 27.3598C24.4934 26.7598 24.0016 26.2916 23.4291 25.977L5.63707 15.8215C3.83878 14.7898 1.54139 15.4118 0.506455 17.2043C0.161478 17.797 0.00733993 18.4482 0.00733993 19.0847H0Z" fill="white"/>
<path fill-rule="evenodd" clip-rule="evenodd" d="M37.9322 64.7039L58.073 53.0193C60.1135 51.834 60.8035 49.2292 59.6144 47.1952C59.1667 46.4343 58.5208 45.8563 57.7794 45.5051L37.8075 34.1057C35.767 32.9424 33.1613 33.6521 31.9942 35.6861C31.5979 36.3739 31.4217 37.1202 31.4364 37.8592L31.5171 61.031C31.5245 63.3796 33.4329 65.2746 35.789 65.2673C36.567 65.2673 37.2937 65.0551 37.9249 64.6893L37.9322 64.7039Z" fill="white"/>
<path d="M59.8498 20.4453H63.8794L66.4484 31.3764C66.5732 31.8592 66.7053 32.686 66.8668 33.864H66.9989C67.153 32.6933 67.2925 31.8592 67.4173 31.3764L70.0449 20.4453H74.5957L77.194 31.3764C77.2968 31.8227 77.4362 32.6568 77.6124 33.864H77.7445C77.884 32.7592 78.0234 31.9324 78.1629 31.3764L80.8126 20.4453H84.2917L79.5648 38.2174H75.4838L72.5479 26.8986C72.3937 26.3279 72.2469 25.4938 72.1075 24.389H72.0047C71.8285 25.5816 71.6817 26.4157 71.5643 26.8986L68.6797 38.2174H64.5987L59.8498 20.4453Z" fill="white"/>
<path d="M90.7293 35.6275C91.889 35.6275 92.7331 35.2982 93.2543 34.6324C93.7754 33.9666 94.0323 32.9642 94.0323 31.6179V31.2009C94.0323 29.8546 93.7681 28.8449 93.2543 28.1864C92.7331 27.5206 91.8964 27.1913 90.7293 27.1913C89.5696 27.1913 88.7328 27.5206 88.2191 28.1864C87.7053 28.8522 87.4484 29.8546 87.4484 31.2009V31.6179C87.4484 32.9642 87.7053 33.9739 88.2191 34.6324C88.7328 35.2982 89.5696 35.6275 90.7293 35.6275ZM90.7293 38.5322C88.3879 38.5322 86.6483 37.9541 85.5033 36.7981C84.3582 35.6421 83.7857 33.8422 83.7857 31.4131C83.7857 28.9766 84.3582 27.184 85.5033 26.028C86.6483 24.872 88.3879 24.2939 90.7293 24.2939C93.0708 24.2939 94.8177 24.872 95.9701 26.028C97.1224 27.184 97.695 28.9839 97.695 31.4131C97.695 33.8495 97.1151 35.6421 95.9701 36.7981C94.8103 37.9541 93.0634 38.5322 90.7293 38.5322Z" fill="white"/>
<path d="M99.6551 24.5942H102.694L102.98 26.7965H103.164C103.457 26.0209 103.839 25.4063 104.309 24.96C104.778 24.5137 105.395 24.2869 106.151 24.2869C106.65 24.2869 107.105 24.3673 107.501 24.521V27.8354H106.518C105.358 27.8354 104.514 28.1501 103.993 28.7793C103.472 29.4085 103.215 30.367 103.215 31.6401V38.2178H99.6551V24.5942Z" fill="white"/>
<path d="M109.108 20.4453H112.668V30.0082L117.19 24.5938H121.3L116.779 29.8252L121.557 38.2247H117.476L114.489 32.4446L112.668 34.2079V38.2247H109.108V20.4453Z" fill="white"/>
<path d="M152.67 35.6275C153.83 35.6275 154.674 35.2982 155.195 34.6324C155.716 33.9666 155.973 32.9642 155.973 31.6179V31.2009C155.973 29.8546 155.709 28.8449 155.195 28.1864C154.674 27.5206 153.837 27.1913 152.67 27.1913C151.511 27.1913 150.674 27.5206 150.16 28.1864C149.646 28.8522 149.389 29.8546 149.389 31.2009V31.6179C149.389 32.9642 149.646 33.9739 150.16 34.6324C150.674 35.2982 151.511 35.6275 152.67 35.6275ZM152.67 38.5322C150.329 38.5322 148.589 37.9541 147.444 36.7981C146.299 35.6421 145.727 33.8422 145.727 31.4131C145.727 28.9766 146.299 27.184 147.444 26.028C148.589 24.872 150.329 24.2939 152.67 24.2939C155.012 24.2939 156.759 24.872 157.911 26.028C159.063 27.184 159.636 28.9839 159.636 31.4131C159.636 33.8495 159.056 35.6421 157.911 36.7981C156.751 37.9541 155.004 38.5322 152.67 38.5322Z" fill="white"/>
<path d="M165.742 38.5325C164.458 38.5325 163.54 38.1886 162.99 37.4935C162.432 36.8058 162.16 35.9278 162.16 34.8742V27.499H160.524V24.5942H162.241L162.836 20.3286H165.72V24.5942H168.084V27.499H165.72V34.523C165.72 35.2693 166.095 35.6351 166.836 35.6351H168.084V38.1228C167.79 38.2252 167.423 38.3203 166.975 38.4081C166.535 38.4886 166.124 38.5325 165.742 38.5325Z" fill="white"/>
<path d="M182.81 35.6275C183.97 35.6275 184.814 35.2982 185.335 34.6324C185.856 33.9666 186.113 32.9642 186.113 31.6179V31.2009C186.113 29.8546 185.849 28.8449 185.335 28.1864C184.814 27.5206 183.977 27.1913 182.81 27.1913C181.65 27.1913 180.814 27.5206 180.3 28.1864C179.786 28.8522 179.529 29.8546 179.529 31.2009V31.6179C179.529 32.9642 179.786 33.9739 180.3 34.6324C180.814 35.2982 181.65 35.6275 182.81 35.6275ZM182.81 38.5322C180.469 38.5322 178.729 37.9541 177.584 36.7981C176.439 35.6421 175.866 33.8422 175.866 31.4131C175.866 28.9766 176.439 27.184 177.584 26.028C178.729 24.872 180.469 24.2939 182.81 24.2939C185.151 24.2939 186.898 24.872 188.051 26.028C189.203 27.184 189.776 28.9839 189.776 31.4131C189.776 33.8495 189.196 35.6421 188.051 36.7981C186.891 37.9541 185.144 38.5322 182.81 38.5322Z" fill="white"/>
<path d="M191.728 24.5939H194.766L195.031 26.3792H195.214C196.322 24.9817 197.746 24.2793 199.479 24.2793C200.881 24.2793 201.989 24.6598 202.789 25.4207C203.596 26.1816 204 27.3962 204 29.0717V38.2175H200.44V29.8253C200.44 28.9766 200.242 28.3693 199.838 27.9888C199.442 27.6084 198.855 27.4181 198.069 27.4181C197.269 27.4181 196.609 27.6962 196.08 28.2596C195.552 28.8229 195.288 29.518 195.288 30.3448V38.2175H191.728V24.5939Z" fill="white"/>
<path d="M120.78 38.225H124.809L127.378 27.2939C127.503 26.811 127.635 25.9843 127.797 24.8063H127.929C128.105 26.0135 128.237 26.8403 128.34 27.2939L130.938 38.225H135.489L138.117 27.2939C138.234 26.811 138.374 25.9843 138.535 24.8063H138.667C138.807 25.9111 138.946 26.7379 139.086 27.2939L141.735 38.225H145.215L140.488 20.4529H138.535H136.869L133.984 31.7717C133.867 32.2546 133.72 33.096 133.544 34.2886H133.441C133.302 33.1838 133.155 32.3424 133.001 31.7717L130.065 20.4529H127.936H125.514L120.78 38.225Z" fill="white"/>
<path d="M173.876 24.594H170.316V38.2249H173.876V24.594Z" fill="white"/>
<path fill-rule="evenodd" clip-rule="evenodd" d="M172.673 23.0795L174.5 19.9261C174.684 19.6041 174.574 19.2017 174.258 19.0115C174.141 18.9457 174.009 18.9164 173.876 18.9237H170.272C169.905 18.9237 169.605 19.2237 169.605 19.5895C169.605 19.7139 169.641 19.8309 169.7 19.9261L171.52 23.0721C171.704 23.3941 172.115 23.5038 172.43 23.3136C172.533 23.2624 172.614 23.1746 172.673 23.0795Z" fill="white"/>
</svg>
